<svg xmlns="http://www.w3.org/2000/svg" viewBox="0 0 215.75 42.99"><defs><style>.cls-1{fill:#e31019;}</style></defs><title>Duckflix_logo</title><g id="Calque_2" data-name="Calque 2"><g id="Calque_1-2" data-name="Calque 1"><path class="cls-1" d="M17.64,41.74C12,42.2,9.11,42.45,3.43,43Q1.72,24.84,0,6.68c5.87-.55,8.8-.81,14.67-1.29C25.14,4.38,35.1,11.1,35.84,22v.11C36.47,32.82,28,41,17.64,41.74Zm9.68-19c-.46-6.45-5.33-10.65-12.06-10.1-2.54.2-3.81.31-6.36.53.77,8.76,1.15,13.15,1.91,21.91,2.5-.22,3.74-.33,6.24-.53,6.6-.54,10.74-5.26,10.28-11.71Z"/><path class="cls-1" d="M60.78,39.06l-.17-4c-1.73,2.42-4,4.66-8,4.86-6,.3-9.71-3.44-10.09-9.84-.42-7.22-.63-10.83-1.06-18,3.25-.19,4.87-.28,8.12-.44.32,6.22.48,9.33.81,15.55.19,3.75,2.07,5.58,5.11,5.44s4.9-2.15,4.74-5.9c-.26-6.23-.4-9.34-.66-15.57,3.25-.13,4.87-.2,8.13-.31.39,11.16.59,16.74,1,27.9C65.54,38.86,64,38.92,60.78,39.06Z"/><path class="cls-1" d="M89,38.83A14.42,14.42,0,0,1,74,24.75v-.1c-.24-8,5.82-14.74,14.59-14.89,5.41-.09,8.8,1.65,11.49,4.55-2,2.1-2.95,3.15-4.9,5.26-1.82-1.86-3.65-3-6.52-3-4,.07-6.84,3.63-6.74,7.74v.11c.1,4.27,3,7.63,7.32,7.56,2.68-.05,4.5-1.22,6.42-3.06,1.9,1.85,2.84,2.78,4.72,4.64A14.34,14.34,0,0,1,89,38.83Z"/><path class="cls-1" d="M123.6,38.14c-2.86-4.61-4.31-6.9-7.23-11.49l-2.81,2.9c0,3.4,0,5.1,0,8.5-3.18,0-4.76,0-7.94,0L105.5,0h8.2c0,8.11-.06,12.16-.09,20.27,3.79-4.05,5.7-6.06,9.56-10.08,3.9.05,5.85.09,9.74.17-4.46,4.3-6.67,6.47-11,10.81,4.39,6.83,6.55,10.25,10.81,17.12C129.05,38.22,127.23,38.19,123.6,38.14Z"/><path class="cls-1" d="M149.67,7c-1.87-.06-3,.84-3,2.92l0,1.1c2.63.08,3.95.13,6.58.23l-.25,6.46c-2.57-.1-3.86-.15-6.43-.23-.29,8.45-.43,12.68-.71,21.14-3.17-.11-4.76-.16-7.93-.24.22-8.46.33-12.69.56-21.14l-3.35-.09.15-6.51,3.37.08,0-1.77c.17-6.14,3.42-8.88,9.2-8.68a18.11,18.11,0,0,1,5.79,1l-.25,6.56A10.6,10.6,0,0,0,149.67,7Z"/><path class="cls-1" d="M156.77,39.08l1.65-38c3.28.14,4.92.22,8.19.39q-.95,19-1.91,38C161.53,39.29,159.94,39.22,156.77,39.08Z"/><path class="cls-1" d="M174.08,8.91l.4-7c3.45.2,5.18.3,8.63.53-.19,2.8-.28,4.21-.46,7C179.22,9.21,177.51,9.11,174.08,8.91Zm-1.56,31L174.12,12c3.25.19,4.87.29,8.12.5l-1.8,27.87C177.27,40.15,175.69,40.06,172.52,39.87Z"/><path class="cls-1" d="M205.07,42.22c-1.95-3.66-2.93-5.49-4.91-9.15-2.55,3.29-3.82,4.93-6.34,8.23-3.31-.25-5-.37-8.28-.6,4.31-5.39,6.49-8.07,10.9-13.41-3.39-5.78-5.11-8.67-8.6-14.43,3.49.25,5.23.37,8.71.64,1.88,3.41,2.82,5.11,4.67,8.53,2.41-3.07,3.62-4.6,6.05-7.65,3.39.29,5.09.45,8.48.77-4.37,5-6.53,7.59-10.81,12.68,3.49,6.05,5.22,9.08,8.61,15.16C210.16,42.67,208.46,42.52,205.07,42.22Z"/></g></g></svg>